<?xml version="1.0" standalone="no"?>
<!DOCTYPE svg PUBLIC "-//W3C//DTD SVG 20010904//EN"
 "http://www.w3.org/TR/2001/REC-SVG-20010904/DTD/svg10.dtd">
<svg version="1.0" xmlns="http://www.w3.org/2000/svg"
 width="150.000000pt" height="150.000000pt" viewBox="0 0 150.000000 150.000000"
 preserveAspectRatio="xMidYMid meet">
<metadata>
Created by potrace 1.14, written by Peter Selinger 2001-2017
</metadata>
<g transform="translate(0.000000,150.000000) scale(0.100000,-0.100000)"
fill="#000000" stroke="none">
<path d="M778 1349 c-24 -20 -41 -27 -65 -24 -18 1 -33 -1 -33 -5 0 -7 -74
-21 -112 -21 -10 0 -18 -4 -18 -10 0 -17 -47 -9 -65 11 -10 11 -26 20 -36 20
-10 0 -20 4 -23 9 -8 13 -66 6 -101 -13 -34 -17 -77 -62 -83 -86 -12 -44 -13
-113 -3 -120 7 -4 13 -17 14 -28 1 -12 5 -22 9 -22 11 0 10 -38 -1 -44 -5 -3
-7 -15 -4 -26 3 -11 1 -20 -4 -20 -5 0 -8 -35 -8 -77 2 -81 21 -173 36 -173 5
0 9 -5 9 -12 0 -6 12 -27 26 -45 25 -33 26 -37 12 -71 -14 -38 -16 -114 -3
-144 5 -13 3 -18 -8 -18 -12 0 -24 -20 -31 -52 0 -3 -4 -10 -8 -14 -4 -4 -3
-13 3 -21 9 -10 8 -13 -1 -13 -9 0 -9 -4 -2 -13 6 -7 10 -22 8 -32 -2 -11 0
-22 4 -25 4 -3 10 -18 14 -34 6 -23 4 -27 -9 -22 -10 4 -22 -5 -35 -26 -32
-54 -20 -58 165 -58 90 0 170 3 179 6 18 7 21 35 5 51 -8 8 -5 14 11 23 16 9
25 9 33 1 13 -13 207 -15 207 -2 0 5 9 7 20 4 19 -5 19 -6 2 -35 -15 -25 -15
-30 -2 -38 9 -6 91 -9 190 -7 l175 2 1 33 c1 26 -4 36 -20 42 -12 4 -24 6 -28
3 -10 -5 -10 21 -1 31 19 18 20 176 2 176 -14 0 -23 43 -25 115 0 39 -4 79 -8
91 -5 14 -2 26 8 37 9 8 16 20 16 25 0 5 9 17 20 27 11 10 20 26 20 35 0 9 3
20 7 24 13 12 16 40 16 119 -1 94 -3 110 -16 119 -16 10 -12 66 6 86 23 26 23
123 0 165 -25 44 -39 57 -60 57 -10 0 -27 7 -37 15 -23 18 -60 20 -50 4 4 -7
-1 -9 -12 -7 -11 2 -36 -6 -56 -19 -45 -28 -48 -28 -92 -5 -41 20 -44 28 -16
37 11 4 20 15 20 26 0 18 -6 19 -65 18 -56 -2 -70 -6 -97 -30z"/>
</g>
</svg>
